<svg id="Basic_copy" data-name="Basic copy" xmlns="http://www.w3.org/2000/svg" xmlns:xlink="http://www.w3.org/1999/xlink" width="446" height="668" viewBox="0 0 446 668">
  <defs>
    <style>
      .cls-1, .cls-2, .cls-3, .cls-4, .cls-5 {
        stroke: #000;
      }

      .cls-1 {
        stroke-linejoin: round;
        fill: url(#linear-gradient);
      }

      .cls-1, .cls-2, .cls-3 {
        stroke-width: 2px;
      }

      .cls-1, .cls-2, .cls-3, .cls-4 {
        fill-rule: evenodd;
      }

      .cls-2 {
        fill: #868383;
      }

      .cls-3 {
        fill: #8f8f8f;
      }

      .cls-4, .cls-5 {
        fill: none;
        stroke-width: 3px;
      }
    </style>
    <linearGradient id="linear-gradient" x1="222.422" y1="493" x2="222.422" y2="8" gradientUnits="userSpaceOnUse">
      <stop offset="0" stop-color="#7e662e" stop-opacity="0.902"/>
      <stop offset="1" stop-color="#c6ac6e"/>
    </linearGradient>
  </defs>
  <g id="Ligh_Bulb" data-name="Ligh Bulb">
    <g id="OG_Shape_copy" data-name="OG Shape copy">
      <path class="cls-1" d="M222.416,8c119.029,0,215.521,96.492,215.521,215.521,0,33.074-8.829,72.4-28.937,104.479-35.013,55.857-90,97-90,97l-12,20-6,47s-69.7,1-79,1H139l-3-49-13.5-18.774S71.219,387.7,38,335C15.626,299.5,6.921,252.14,6.895,223.521,6.785,104.492,103.387,8,222.416,8Z"/>
    </g>
    <g id="Bottom">
      <path id="Rectangle_3_copy_2" data-name="Rectangle 3 copy 2" class="cls-2" d="M304,492l-3,137.821c0,16.548-13.431,30.96-30,30.96l-100.077.213c-14.938-.167-28.934-14.624-28.923-31.173L138,494Z"/>
      <path id="Rectangle_2_copy_3" data-name="Rectangle 2 copy 3" class="cls-3" d="M136.054,527.544l162.055-29.88a10.5,10.5,0,0,1,12.239,8.358l1.066,5.713a10.439,10.439,0,0,1-8.408,12.164l-162.055,29.88a10.5,10.5,0,0,1-12.239-8.357l-1.067-5.714A10.44,10.44,0,0,1,136.054,527.544Z"/>
      <path id="Rectangle_2_copy_3-2" data-name="Rectangle 2 copy 3" class="cls-3" d="M136.054,566.3l162.055-29.879a10.5,10.5,0,0,1,12.239,8.357l1.066,5.714a10.44,10.44,0,0,1-8.408,12.164L140.951,592.54a10.494,10.494,0,0,1-12.239-8.357l-1.067-5.713A10.441,10.441,0,0,1,136.054,566.3Z"/>
      <path id="Rectangle_2_copy_3-3" data-name="Rectangle 2 copy 3" class="cls-3" d="M138.054,608.048l162.055-29.879a10.5,10.5,0,0,1,12.239,8.357l1.066,5.713a10.44,10.44,0,0,1-8.408,12.165L142.951,634.283a10.494,10.494,0,0,1-12.239-8.357l-1.067-5.713A10.441,10.441,0,0,1,138.054,608.048Z"/>
    </g>
  </g>
  <g id="Web">
    <path class="cls-4" d="M222.494,204.729a26.729,26.729,0,1,1-26.4,27.211A26.811,26.811,0,0,1,222.494,204.729Z"/>
    <g id="_2nd" data-name="2nd">
      <path id="Line_4" data-name="Line 4" class="cls-4" d="M194.248,237.6l0.127,0.76-40.055,6.959-0.128-.76Z"/>
      <circle id="Ellipse_2_copy_3" data-name="Ellipse 2 copy 3" class="cls-5" cx="125.234" cy="249.5" r="26.797"/>
      <path id="Line_4_copy" data-name="Line 4 copy" class="cls-4" d="M251.752,237.6l-0.127.76,40.055,6.959,0.128-.76Z"/>
      <circle id="Ellipse_2_copy_7" data-name="Ellipse 2 copy 7" class="cls-5" cx="320.765" cy="249.5" r="26.797"/>
    </g>
    <g id="_3rd" data-name="3rd">
      <path id="Line_4_copy-2" data-name="Line 4 copy" class="cls-4" d="M244.263,213.938l-0.45-.626,32.857-23.944,0.45,0.626Z"/>
      <path id="Ellipse_2_copy_7-2" data-name="Ellipse 2 copy 7" class="cls-4" d="M275.106,165.88A26.73,26.73,0,1,1,294,198.755,26.811,26.811,0,0,1,275.106,165.88Z"/>
      <path id="Line_4_copy_2" data-name="Line 4 copy 2" class="cls-4" d="M199.737,213.938l0.45-.626L167.33,189.368l-0.45.626Z"/>
      <path id="Ellipse_2_copy_8" data-name="Ellipse 2 copy 8" class="cls-4" d="M168.894,165.88A26.73,26.73,0,1,0,150,198.755,26.811,26.811,0,0,0,168.894,165.88Z"/>
      <path id="Line_4_copy_3" data-name="Line 4 copy 3" class="cls-4" d="M224.216,258.787l-0.772,0-0.457,40.579,0.773,0Z"/>
      <circle id="Ellipse_2_copy_9" data-name="Ellipse 2 copy 9" class="cls-5" cx="223.547" cy="328.688" r="26.828"/>
      <path id="Line_4_copy_3-2" data-name="Line 4 copy 3" class="cls-4" d="M223.64,201.434l-0.771.012L222.024,160.8l0.772-.012Z"/>
      <circle id="Ellipse_2_copy_9-2" data-name="Ellipse 2 copy 9" class="cls-5" cx="222.297" cy="131.406" r="26.797"/>
    </g>
    <g id="_4th" data-name="4th">
      <path id="Line_4_copy_4" data-name="Line 4 copy 4" class="cls-4" d="M329.492,167.136l0.076-.768,40.481,3.768-0.077.768Z"/>
      <circle id="Ellipse_2_copy_10" data-name="Ellipse 2 copy 10" class="cls-5" cx="399.219" cy="173.719" r="26.844"/>
      <path id="Line_4_copy-3" data-name="Line 4 copy" class="cls-4" d="M322.533,276.461l0.764-.107,5.88,40.229-0.764.107Z"/>
      <circle id="Ellipse_2_copy_7-3" data-name="Ellipse 2 copy 7" class="cls-5" cx="332.563" cy="345.781" r="26.813"/>
      <path id="Line_4_copy_3-3" data-name="Line 4 copy 3" class="cls-4" d="M213.54,353.416l-0.66-.4-21.64,34.33,0.66,0.4Z"/>
      <path id="Ellipse_2_copy_9-3" data-name="Ellipse 2 copy 9" class="cls-4" d="M167.588,387.494a26.643,26.643,0,0,0-16.783,33.882,26.97,26.97,0,0,0,34.3,16.359,26.642,26.642,0,0,0,16.782-33.882A26.969,26.969,0,0,0,167.588,387.494Z"/>
      <path id="Line_4_copy_5" data-name="Line 4 copy 5" class="cls-4" d="M99.5,237.633l0.44-.635-33-23.626-0.44.635Z"/>
      <path id="Ellipse_2_copy_11" data-name="Ellipse 2 copy 11" class="cls-4" d="M68.187,189.753A26.642,26.642,0,0,0,35.353,171,26.969,26.969,0,0,0,17,204.28a26.642,26.642,0,0,0,32.834,18.75A26.969,26.969,0,0,0,68.187,189.753Z"/>
      <path id="Line_4_copy_2-2" data-name="Line 4 copy 2" class="cls-4" d="M137.99,145.107l0.771-.018-0.728-40.649-0.772.018Z"/>
      <path id="Ellipse_2_copy_8-2" data-name="Ellipse 2 copy 8" class="cls-4" d="M157.708,91.516a26.73,26.73,0,1,0-37.615,4.77A26.811,26.811,0,0,0,157.708,91.516Z"/>
      <path id="Line_4_copy_3-4" data-name="Line 4 copy 3" class="cls-4" d="M237.368,107.578l-0.576-.512,26.84-30.537,0.576,0.513Z"/>
      <path id="Ellipse_2_copy_9-4" data-name="Ellipse 2 copy 9" class="cls-4" d="M256.98,53.948a26.73,26.73,0,1,1,25.609,27.961A26.811,26.811,0,0,1,256.98,53.948Z"/>
    </g>
    <g id="_5th" data-name="5th">
      <path id="Line_4_copy_3-5" data-name="Line 4 copy 3" class="cls-4" d="M195.467,337.686l-0.3-.714-37.736,15.245,0.3,0.713Z"/>
      <path id="Ellipse_2_copy_9-5" data-name="Ellipse 2 copy 9" class="cls-4" d="M138.087,338.471A26.713,26.713,0,0,0,104.568,356.2,27.059,27.059,0,0,0,122.9,389.623a26.714,26.714,0,0,0,33.52-17.729A27.06,27.06,0,0,0,138.087,338.471Z"/>
      <path id="Line_4_copy_6" data-name="Line 4 copy 6" class="cls-4" d="M234.537,356.147l-0.719.286,14.454,38.047,0.72-.287Z"/>
      <circle id="Ellipse_2_copy_12" data-name="Ellipse 2 copy 12" class="cls-5" cx="259.547" cy="421.656" r="26.766"/>
      <path id="Line_4_copy_5-2" data-name="Line 4 copy 5" class="cls-4" d="M105.751,268.47l-0.676-.374-20.21,35.191,0.676,0.374Z"/>
      <path id="Ellipse_2_copy_11-2" data-name="Ellipse 2 copy 11" class="cls-4" d="M61.24,304.41a26.642,26.642,0,0,0-15.374,34.544,26.97,26.97,0,0,0,34.945,14.934,26.642,26.642,0,0,0,15.374-34.544A26.97,26.97,0,0,0,61.24,304.41Z"/>
      <path id="Line_4_copy_7" data-name="Line 4 copy 7" class="cls-4" d="M306.51,72.214l0.474-.608,32.2,24.824-0.475.608Z"/>
      <circle id="Ellipse_2_copy_13" data-name="Ellipse 2 copy 13" class="cls-5" cx="361.922" cy="115.062" r="26.891"/>
    </g>
  </g>
</svg>
