<?xml version="1.0" standalone="no"?>
<!DOCTYPE svg PUBLIC "-//W3C//DTD SVG 20010904//EN"
 "http://www.w3.org/TR/2001/REC-SVG-20010904/DTD/svg10.dtd">
<svg version="1.0" xmlns="http://www.w3.org/2000/svg"
 width="668.000000pt" height="668.000000pt" viewBox="0 0 668.000000 668.000000"
 preserveAspectRatio="xMidYMid meet">
<metadata>
Created by potrace 1.14, written by Peter Selinger 2001-2017
</metadata>
<g transform="translate(0.000000,668.000000) scale(0.100000,-0.100000)"
fill="#000000" stroke="none">
<path d="M3159 6616 c-2 -2 -31 -7 -64 -10 -488 -51 -938 -268 -1296 -625
-198 -197 -342 -406 -458 -664 -65 -144 -140 -407 -157 -548 -3 -30 -9 -58
-12 -63 -9 -16 -11 -389 -2 -451 5 -33 11 -82 15 -109 4 -40 30 -167 51 -251
3 -11 7 -30 9 -41 23 -106 176 -472 217 -516 7 -7 22 -29 32 -48 62 -112 249
-340 427 -521 135 -137 347 -325 380 -337 5 -2 37 -43 71 -90 34 -48 65 -89
69 -92 4 -3 11 -50 14 -105 4 -55 8 -122 11 -150 7 -87 17 -335 18 -459 l1
-120 -31 -8 c-16 -4 -41 -19 -55 -34 -20 -22 -24 -35 -23 -87 0 -37 8 -75 18
-94 16 -32 61 -63 91 -63 11 0 15 -11 15 -43 0 -42 -2 -44 -38 -55 -62 -19
-87 -53 -87 -120 1 -70 18 -115 54 -139 28 -19 31 -20 60 -22 16 -1 20 -10 23
-62 l3 -62 -40 -17 c-65 -28 -80 -52 -79 -124 0 -36 8 -74 18 -93 17 -34 61
-63 94 -63 10 0 19 -6 19 -13 0 -7 11 -38 25 -69 30 -65 88 -127 150 -160 l43
-23 575 0 575 0 47 23 c102 51 174 153 183 259 3 32 7 105 9 163 3 58 5 108 5
113 1 4 10 7 21 7 11 0 34 13 52 29 31 27 33 34 32 93 0 77 -22 123 -69 145
l-35 16 3 66 c2 61 4 68 32 86 49 33 60 68 47 143 -8 52 -17 69 -42 92 -28 25
-31 33 -29 77 2 41 8 53 38 79 30 26 35 38 37 80 3 58 -17 123 -46 146 -13 11
-20 28 -20 52 0 20 -5 36 -10 36 -6 0 -8 10 -6 23 3 12 8 42 10 67 16 146 49
376 55 380 7 6 17 22 65 106 20 34 51 75 69 90 19 16 58 49 87 74 111 93 149
128 286 265 77 77 168 174 203 215 34 41 70 84 80 95 57 66 221 297 221 311 0
4 6 15 14 23 32 37 131 252 170 371 25 77 65 233 70 275 3 22 8 51 11 65 20
90 28 419 13 547 -91 800 -596 1472 -1335 1779 -155 65 -356 120 -508 140 -27
4 -59 9 -70 11 -23 6 -421 14 -426 9z m-674 -3365 c3 -5 2 -12 -3 -15 -5 -3
-9 1 -9 9 0 17 3 19 12 6z m-35 -525 c0 -3 -4 -8 -10 -11 -5 -3 -10 -1 -10 4
0 6 5 11 10 11 6 0 10 -2 10 -4z m410 -2 c0 -8 -19 -13 -24 -6 -3 5 1 9 9 9 8
0 15 -2 15 -3z"/>
</g>
</svg>
